<svg xmlns="http://www.w3.org/2000/svg" width="32" height="32" version="1.1">
 <path style="opacity:0.2" d="M 5,14 h 22 v 15 c 0,0.6 -0.4,1 -1,1 H 6 c -0.6,0 -1,-0.4 -1,-1 Z"/>
 <path style="fill:#e4e4e4" d="M 5,13 h 22 v 15 c 0,0.6 -0.4,1 -1,1 H 6 c -0.6,0 -1,-0.4 -1,-1 Z"/>
 <path style="opacity:0.2" d="M 4,4 h 24 c 0.6,0 1,0.4 1,1 l 1,6 c 0,0.6 -0.4,1 -1,1 H 3 C 2.4,12 2,11.6 2,11 L 3,5 C 3,4.4 3.4,4 4,4 Z"/>
 <path style="fill:#c0392b" d="M 4,3 h 24 c 0.6,0 1,0.4 1,1 l 1,6 c 0,0.6 -0.4,1 -1,1 H 3 C 2.4,11 2,10.6 2,10 L 3,4 C 3,3.4 3.4,3 4,3 Z"/>
 <path style="fill:#f2f2f2" d="M 9,3 h 4.6 l -0.6,8 H 8 Z M 18.4,3 H 23 l 1,8 h -5 Z"/>
 <rect style="fill:#4877b1" width="8" height="10" x="12" y="19" rx="0.8" ry="0.8"/>
 <rect style="fill:#8ab4dd" width="5" height="4" x="7" y="16" rx="0.6" ry="0.6"/>
 <rect style="fill:#8ab4dd" width="5" height="4" x="20" y="16" rx="0.6" ry="0.6"/>
</svg>
