<svg xmlns="http://www.w3.org/2000/svg" width="32" height="32" version="1.1" viewBox="0 0 32 32">
 <ellipse cx="16" cy="28.5" rx="9" ry="1.8" style="opacity:0.15;fill:#000000"/>
 <path style="opacity:0.2;fill:#000000" d="m 7,13 2,-1 11.5,0 1.8,-3.2 c 0.6,-1.1 2,-1.5 3,-0.8 l 0.5,0.3 c 1,0.7 1.2,2.1 0.5,3.1 L 24,14.5 25,24 c 0.2,1.6-1,3-2.6,3 H 8.6 C 7.2,27 6.2,26 6,24.8 L 5,14 c -0.2,-1.1 0.6,-2.1 1.6,-2.3 z"/>
 <path style="fill:#f57c00" d="m 6.5,12.2 2,-1 11.5,0 1.8,-3.2 c 0.6,-1.1 2,-1.5 3,-0.8 l 0.5,0.3 c 1,0.7 1.2,2.1 0.5,3.1 L 23.5,13.7 24.5,23.2 C 24.7,24.8 23.5,26.2 21.9,26.2 H 8.1 C 6.7,26.2 5.7,25.2 5.5,24 L 4.5,13.2 C 4.3,12.1 5.1,11.2 6.1,11 z"/>
 <path style="fill:#ff9107" d="m 8,14.5 13.2,0 0.9,7.4 c 0.1,0.9-0.6,1.6-1.4,1.6 H 8.9 c -0.7,0-1.3,-0.5-1.4,-1.2 L 6.7,14.6 Z"/>
 <path style="fill:#fff176" d="m 9.5,10.5 2.2,-3.8 c 0.3,-0.6 1,-0.8 1.5,-0.4 L 13.5,7 c 0.5,0.4 0.7,1.1 0.4,1.6 L 12.5,11.2 Z"/>
 <path style="fill:#aed581" d="m 12.8,9.6 2.5,-3.5 c 0.4,-0.5 1.1,-0.6 1.6,-0.2 l 0.3,0.2 c 0.5,0.4 0.6,1.1 0.2,1.6 L 15.2,11.5 Z"/>
 <path style="opacity:0.25;fill:#ffffff" d="m 8.2,14.8 12.8,0 0.7,6.8 H 9.1 Z"/>
 <g style="opacity:0.4;stroke:#ffffff;stroke-width:0.9;stroke-linecap:round">
  <path d="M 9.2,16.8 H 19.6"/>
  <path d="M 9.2,18.6 H 17.8"/>
  <path d="M 9.2,20.4 H 19.2"/>
 </g>
 <path style="fill:none;stroke:#5d4037;stroke-width:1.6;stroke-linecap:round" d="M 10.5,11.5 C 10.5,9 12.5,7 15.2,7 h 1.6 C 19.5,7 21.5,9 21.5,11.5"/>
 <circle style="opacity:0.25;fill:#000000" cx="10.5" cy="26.5" r="3.2"/>
 <circle style="opacity:0.25;fill:#000000" cx="21.5" cy="26.5" r="3.2"/>
 <circle style="fill:#37474f" cx="10.5" cy="25.8" r="3"/>
 <circle style="fill:#37474f" cx="21.5" cy="25.8" r="3"/>
 <circle style="fill:#90a4ae" cx="10.5" cy="25.8" r="1.3"/>
 <circle style="fill:#90a4ae" cx="21.5" cy="25.8" r="1.3"/>
</svg>
