<?xml version="1.0" encoding="UTF-8"?>
<svg version="1.1" xmlns="http://www.w3.org/2000/svg" width="400" height="400">
<path d="M0 0 C1.49471793 -0.01272221 2.98984489 0.0026535 4.48413086 0.04077148 C5.27420029 0.04310287 6.06426971 0.04543427 6.87828064 0.0478363 C8.54689342 0.05757318 10.21547314 0.07935943 11.88378906 0.11230469 C14.44312225 0.16175216 17.00053488 0.17378614 19.56030273 0.17944336 C21.18076597 0.1935279 22.80121247 0.2097318 24.42163086 0.22827148 C25.18935318 0.23363419 25.9570755 0.23899689 26.74806213 0.24452209 C32.1531848 0.36607543 32.1531848 0.36607543 34.38647461 2.59936523 C34.63966166 5.41680719 34.7567655 8.09346432 34.76147461 10.91186523 C34.7859668 11.67176758 34.81045898 12.43166992 34.83569336 13.21459961 C34.83956055 13.95645508 34.84342773 14.69831055 34.84741211 15.46264648 C34.85562988 16.13593994 34.86384766 16.8092334 34.87231445 17.50292969 C34.38647461 19.59936523 34.38647461 19.59936523 32.35913086 21.92333984 C29.78272634 25.41838563 30.03869124 27.26839818 30.36303711 31.55249023 C30.43099991 32.54197662 30.43099991 32.54197662 30.50033569 33.55145264 C30.59992633 34.94399484 30.70980655 36.33583487 30.8293457 37.72680664 C31.00962568 39.82781752 31.15991897 41.92921659 31.30444336 44.03295898 C31.81642058 51.04906654 32.6189517 57.7837969 34.38647461 64.59936523 C34.72104104 65.93238969 35.05470451 67.26564207 35.38647461 68.59936523 C36.04647461 68.59936523 36.70647461 68.59936523 37.38647461 68.59936523 C38.54597719 69.72476479 39.6984615 70.858398 40.81225586 72.02905273 C43.32913542 74.53968693 46.08308447 76.77343371 48.81225586 79.04858398 C49.33174805 79.5603418 49.85124023 80.07209961 50.38647461 80.59936523 C50.38647461 81.25936523 50.38647461 81.91936523 50.38647461 82.59936523 C51.04647461 82.59936523 51.70647461 82.59936523 52.38647461 82.59936523 C52.38647461 83.25936523 52.38647461 83.91936523 52.38647461 84.59936523 C53.04647461 84.59936523 53.70647461 84.59936523 54.38647461 84.59936523 C54.49024414 84.0116333 54.59401367 83.42390137 54.70092773 82.81835938 C55.96542574 76.0560727 57.78761249 69.58373431 59.88647461 63.03686523 C60.19456055 62.04106445 60.50264648 61.04526367 60.82006836 60.01928711 C61.12041992 59.07504883 61.42077148 58.13081055 61.73022461 57.15795898 C62.0002832 56.30516357 62.2703418 55.45236816 62.54858398 54.57373047 C63.38647461 52.59936523 63.38647461 52.59936523 65.38647461 51.59936523 C67.31062614 51.49281202 69.23846701 51.45052766 71.16552734 51.43823242 C72.37695908 51.42862488 73.58839081 51.41901733 74.83653259 51.40911865 C76.8083828 51.40274384 76.8083828 51.40274384 78.82006836 51.39624023 C80.17765811 51.390489 81.53524783 51.38473126 82.89283752 51.37896729 C85.74008564 51.36845909 88.58730553 51.36261505 91.43457031 51.35913086 C95.08436583 51.35364214 98.73378903 51.32960583 102.38346767 51.30115891 C105.18786208 51.28254409 107.99216653 51.27732759 110.79661751 51.27579498 C112.79694556 51.27129228 114.79722547 51.25264155 116.79747009 51.23382568 C118.01205399 51.23682678 119.22663788 51.23982788 120.47802734 51.24291992 C122.08447365 51.23745148 122.08447365 51.23745148 123.72337341 51.23187256 C126.38647461 51.59936523 126.38647461 51.59936523 128.18006897 52.93780518 C138.79581168 67.55867025 143.49840915 98.50797005 140.92163086 115.70092773 C139.31593575 123.05482131 136.28327616 129.19297304 132.38647461 135.59936523 C131.72647461 135.59936523 131.06647461 135.59936523 130.38647461 135.59936523 C130.38647461 136.25936523 130.38647461 136.91936523 130.38647461 137.59936523 C129.72647461 137.59936523 129.06647461 137.59936523 128.38647461 137.59936523 C128.38647461 138.25936523 128.38647461 138.91936523 128.38647461 139.59936523 C126.27563668 141.32286591 124.17413645 142.910738 121.94897461 144.47436523 C121.31314453 144.92618164 120.67731445 145.37799805 120.0222168 145.84350586 C115.88100873 148.72452859 111.79967488 151.09816213 107.05834961 152.88061523 C105.16786369 153.57108036 105.16786369 153.57108036 103.38647461 155.59936523 C103.06015485 157.74503199 103.06015485 157.74503199 103.08007812 160.24511719 C103.06409073 161.20984451 103.04810333 162.17457184 103.03163147 163.16853333 C103.02626877 164.21434067 103.02090607 165.26014801 103.01538086 166.33764648 C103.00635239 167.41056442 102.99732391 168.48348236 102.98802185 169.58891296 C102.97349288 171.86279499 102.96462607 174.13671908 102.9609375 176.41064453 C102.94905724 179.88768252 102.89990887 183.36293734 102.84936523 186.83959961 C102.83989961 189.04727322 102.83266524 191.25495776 102.82788086 193.46264648 C102.79858238 195.02224846 102.79858238 195.02224846 102.76869202 196.61335754 C102.78830924 202.61905847 102.78830924 202.61905847 105.76953125 207.73046875 C108.34439087 209.56931103 110.20590189 210.49219925 113.26147461 211.22436523 C124.27910281 214.14707436 124.27910281 214.14707436 126.57788086 217.16186523 C129.47457628 219.4642063 132.83181633 219.05509013 136.38647461 219.09936523 C143.81038927 219.19183392 143.81038927 219.19183392 146.33569336 220.97827148 C147.78447496 223.21338065 148.19228032 224.94537661 148.38647461 227.59936523 C147.40917242 230.30574052 146.98135016 231.30192746 144.38647461 232.59936523 C141.91447813 232.7034867 139.47025492 232.74716342 136.99771118 232.74653625 C135.84169421 232.75205129 135.84169421 232.75205129 134.66232336 232.75767773 C132.0659726 232.76873833 129.46966183 232.7725624 126.87329102 232.77636719 C125.01743949 232.78262995 123.16158923 232.78927658 121.30574036 232.79627991 C116.2541028 232.81370485 111.20247471 232.82424533 106.15081453 232.83248544 C102.99723298 232.83763148 99.84365439 232.84370733 96.69007492 232.84999657 C86.83041425 232.86905116 76.97076109 232.88328281 67.11108553 232.89160854 C55.71605585 232.90138878 44.32122002 232.92772772 32.92625868 232.96810943 C24.12707622 232.99822622 15.32794947 233.01307311 6.52871644 233.01638955 C1.26915482 233.01874474 -3.99019976 233.02776619 -9.24970627 233.05285072 C-14.19584177 233.07605951 -19.14163286 233.08039378 -24.08780861 233.07008934 C-25.90510641 233.06959214 -27.72242075 233.07596647 -29.53966713 233.08964539 C-32.01712687 233.10725346 -34.49333563 233.10031383 -36.97079468 233.08711243 C-37.6931683 233.09808167 -38.41554192 233.10905092 -39.15980566 233.12035257 C-42.52237193 233.0769694 -44.3447065 232.79477656 -47.09510231 230.79544353 C-48.61352539 228.59936523 -48.61352539 228.59936523 -48.55102539 224.97436523 C-47.61352539 221.59936523 -47.61352539 221.59936523 -44.61352539 219.59936523 C-42.25341797 219.28051758 -42.25341797 219.28051758 -39.50805664 219.18530273 C-38.52514648 219.14663086 -37.54223633 219.10795898 -36.52954102 219.06811523 C-34.99330078 219.02170898 -34.99330078 219.02170898 -33.42602539 218.97436523 C-32.39026367 218.93569336 -31.35450195 218.89702148 -30.28735352 218.85717773 C-27.72958917 218.76288227 -25.17183252 218.67728322 -22.61352539 218.59936523 C-22.92161133 217.64545898 -23.22969727 216.69155273 -23.54711914 215.70874023 C-24.84782756 211.13849779 -25.27011161 206.57101384 -25.67602539 201.84936523 C-25.80062134 200.47760132 -25.80062134 200.47760132 -25.92773438 199.078125 C-26.60636845 191.33155376 -27.03324349 183.58079152 -27.39868164 175.81420898 C-27.56280985 172.40079611 -27.80664567 169.00336957 -28.11352539 165.59936523 C-28.58006267 160.41642766 -28.85613526 155.23343127 -29.11352539 150.03686523 C-29.35986894 145.06717272 -29.61363972 140.11385766 -30.11352539 135.16186523 C-30.94995284 126.66482444 -31.26268109 118.12758062 -31.61352539 109.59936523 C-31.66895508 108.39795898 -31.72438477 107.19655273 -31.78149414 105.95874023 C-32.02245818 97.00864727 -30.24079916 89.67883868 -24.61352539 82.59936523 C-23.95352539 82.59936523 -23.29352539 82.59936523 -22.61352539 82.59936523 C-22.61352539 81.93936523 -22.61352539 81.27936523 -22.61352539 80.59936523 C-21.95352539 80.59936523 -21.29352539 80.59936523 -20.61352539 80.59936523 C-20.61352539 79.93936523 -20.61352539 79.27936523 -20.61352539 78.59936523 C-18.92215179 77.19827992 -17.18391031 75.8535373 -15.42602539 74.53686523 C-6.77664805 67.51063583 -4.28515039 61.49946312 -3.14306641 50.54785156 C-2.95834549 48.56577053 -2.78563094 46.58258149 -2.61352539 44.59936523 C-2.40613277 42.80758943 -2.19796269 41.01590319 -1.98852539 39.22436523 C-1.85363765 37.68353221 -1.72855501 36.14180787 -1.61352539 34.59936523 C-1.53618164 33.73569336 -1.45883789 32.87202148 -1.37915039 31.98217773 C-1.01832777 26.35825939 -1.01832777 26.35825939 -4.11352539 21.78686523 C-4.79415039 21.11397461 -4.79415039 21.11397461 -5.48852539 20.42749023 C-8.08313182 16.21125479 -7.32323956 10.32487874 -6.61352539 5.59936523 C-5.04849264 1.53050414 -4.39461088 0.72892168 0 0 Z M72.38647461 63.59936523 C69.85236805 70.79835864 67.9552326 78.05038086 66.19897461 85.47436523 C65.92633789 86.60100586 65.65370117 87.72764648 65.37280273 88.88842773 C63.90702845 94.68276719 63.90702845 94.68276719 63.38647461 100.59936523 C65.36647461 100.59936523 67.34647461 100.59936523 69.38647461 100.59936523 C69.64340088 99.57166016 69.64340088 99.57166016 69.90551758 98.52319336 C71.22989909 93.22566732 72.5542806 87.92814128 73.87866211 82.63061523 C74.13631348 81.59678711 74.39396484 80.56295898 74.65942383 79.49780273 C75.10793858 77.70976811 75.56160352 75.92300531 76.02368164 74.13842773 C76.95611217 70.52453551 77.62062586 67.34578522 77.38647461 63.59936523 C75.73647461 63.59936523 74.08647461 63.59936523 72.38647461 63.59936523 Z M59.38647461 135.59936523 C58.44385023 138.42723838 58.18323978 140.47651206 58.02929688 143.42431641 C57.97576553 144.40772507 57.92223419 145.39113373 57.86708069 146.40434265 C57.81289474 147.47287979 57.7587088 148.54141693 57.70288086 149.64233398 C57.6122361 151.31517204 57.6122361 151.31517204 57.51976013 153.02180481 C57.32556079 156.60996015 57.13670149 160.19836582 56.94897461 163.78686523 C56.22608795 177.56563881 55.47731378 191.334918 54.35131836 205.08764648 C54.27039444 206.09135788 54.18947052 207.09506927 54.10609436 208.12919617 C54.02709396 209.05561417 53.94809357 209.98203217 53.86669922 210.93652344 C53.79809189 211.74402542 53.72948456 212.5515274 53.65879822 213.38349915 C53.39585932 215.5230029 52.95764147 217.52296296 52.38647461 219.59936523 C54.1780595 219.62632889 55.96975934 219.6457444 57.76147461 219.66186523 C58.75920898 219.6734668 59.75694336 219.68506836 60.78491211 219.69702148 C63.37079914 219.77943125 63.37079914 219.77943125 65.38647461 218.59936523 C65.38647461 217.93936523 65.38647461 217.27936523 65.38647461 216.59936523 C66.04647461 216.59936523 66.70647461 216.59936523 67.38647461 216.59936523 C67.38647461 215.93936523 67.38647461 215.27936523 67.38647461 214.59936523 C68.52922852 214.4872168 68.52922852 214.4872168 69.69506836 214.37280273 C77.07188355 213.43343301 82.86300521 211.77606973 88.38647461 206.59936523 C90.14378055 203.66904831 90.64093919 201.49248005 90.66113281 198.09375 C90.67066483 197.20925674 90.68019684 196.32476349 90.6900177 195.41346741 C90.68910629 194.46547775 90.68819489 193.5174881 90.68725586 192.54077148 C90.69368355 191.06881569 90.69368355 191.06881569 90.70024109 189.56712341 C90.70597947 187.49348725 90.70648828 185.41983096 90.70214844 183.34619141 C90.69898967 180.17697743 90.72244995 177.00869812 90.74780273 173.83959961 C90.75007592 171.82332474 90.75077913 169.80704737 90.74975586 167.79077148 C90.75896561 166.84480606 90.76817535 165.89884064 90.77766418 164.92420959 C90.74340816 160.04249049 90.70138984 156.47941989 87.38647461 152.59936523 C85.68191841 151.29076436 85.68191841 151.29076436 83.73413086 150.46655273 C83.0399707 150.13526367 82.34581055 149.80397461 81.63061523 149.46264648 C80.91067383 149.13651367 80.19073242 148.81038086 79.44897461 148.47436523 C78.02146314 147.80879283 76.59562499 147.13961762 75.17163086 146.46655273 C74.5079248 146.15298828 73.84421875 145.83942383 73.16040039 145.51635742 C71.05324659 144.42711029 69.25672485 143.05049916 67.38647461 141.59936523 C66.72647461 141.59936523 66.06647461 141.59936523 65.38647461 141.59936523 C65.38647461 140.93936523 65.38647461 140.27936523 65.38647461 139.59936523 C64.72647461 139.59936523 64.06647461 139.59936523 63.38647461 139.59936523 C63.38647461 138.93936523 63.38647461 138.27936523 63.38647461 137.59936523 C62.72647461 137.59936523 62.06647461 137.59936523 61.38647461 137.59936523 C61.38647461 136.93936523 61.38647461 136.27936523 61.38647461 135.59936523 C60.72647461 135.59936523 60.06647461 135.59936523 59.38647461 135.59936523 Z " fill="#C46021" transform="translate(150.613525390625,47.400634765625)"/>
<path d="M0 0 C1.8170343 -0.01418472 1.8170343 -0.01418472 3.67077637 -0.02865601 C4.98018188 -0.02258331 6.2895874 -0.01651062 7.63867188 -0.01025391 C8.99483395 -0.01227492 10.35099497 -0.01518658 11.70715332 -0.01895142 C14.54852654 -0.02337356 17.38961672 -0.01694764 20.23095703 -0.00292969 C23.87294291 0.01416263 27.51426557 0.00432079 31.15622711 -0.01364708 C33.95637 -0.02448816 36.75635567 -0.0210372 39.5565033 -0.0132637 C41.55236237 -0.01028939 43.54822756 -0.0193998 45.54406738 -0.02865601 C46.75542358 -0.01919952 47.96677979 -0.00974304 49.21484375 0 C50.28279175 0.00238678 51.35073975 0.00477356 52.4510498 0.00723267 C55.10742188 0.38818359 55.10742188 0.38818359 56.90002441 1.72860718 C67.52340791 16.33052352 72.21715852 47.31145336 69.64257812 64.48974609 C68.03688302 71.84363967 65.00422343 77.9817914 61.10742188 84.38818359 C60.44742188 84.38818359 59.78742188 84.38818359 59.10742188 84.38818359 C59.10742188 85.04818359 59.10742188 85.70818359 59.10742188 86.38818359 C58.44742188 86.38818359 57.78742188 86.38818359 57.10742188 86.38818359 C57.10742188 87.04818359 57.10742188 87.70818359 57.10742188 88.38818359 C54.99658394 90.11168427 52.89508371 91.69955636 50.66992188 93.26318359 C50.0340918 93.715 49.39826172 94.16681641 48.74316406 94.63232422 C44.60195599 97.51334695 40.52062214 99.88698049 35.77929688 101.66943359 C33.88881096 102.35989872 33.88881096 102.35989872 32.10742188 104.38818359 C31.78110212 106.53385035 31.78110212 106.53385035 31.80102539 109.03393555 C31.78503799 109.99866287 31.7690506 110.9633902 31.75257874 111.95735168 C31.74721603 113.00315903 31.74185333 114.04896637 31.73632812 115.12646484 C31.72729965 116.19938278 31.71827118 117.27230072 31.70896912 118.37773132 C31.69444015 120.65161335 31.68557334 122.92553744 31.68188477 125.19946289 C31.6700045 128.67650088 31.62085613 132.1517557 31.5703125 135.62841797 C31.56084688 137.83609158 31.55361251 140.04377612 31.54882812 142.25146484 C31.52929581 143.29119949 31.50976349 144.33093414 31.48963928 145.4021759 C31.50925651 151.40787683 31.50925651 151.40787683 34.49047852 156.51928711 C37.06533813 158.35812939 38.92684916 159.28101761 41.98242188 160.01318359 C53.03813915 162.9624733 53.03813915 162.9624733 57.10742188 168.38818359 C36.31742187 168.38818359 15.52742187 168.38818359 -5.89257812 168.38818359 C-5.89257812 167.39818359 -5.89257812 166.40818359 -5.89257812 165.38818359 C-5.23257813 165.38818359 -4.57257813 165.38818359 -3.89257812 165.38818359 C-3.89257812 164.72818359 -3.89257812 164.06818359 -3.89257812 163.38818359 C-2.96316406 163.15744141 -2.03375 162.92669922 -1.07617188 162.68896484 C5.82805251 160.8675167 11.70992617 159.28358668 17.10742188 154.38818359 C18.04015835 151.58997416 18.23855549 149.87419933 18.25268555 146.98022461 C18.2590654 146.09242813 18.26544525 145.20463165 18.27201843 144.28993225 C18.27313126 143.33364426 18.27424408 142.37735626 18.27539062 141.39208984 C18.27871902 140.40699936 18.28204742 139.42190887 18.28547668 138.40696716 C18.29054021 136.32315539 18.29288519 134.2393355 18.29272461 132.15551758 C18.29491092 128.96666113 18.31307231 125.77815069 18.33203125 122.58935547 C18.3349653 120.56526811 18.33695002 118.54117911 18.33789062 116.51708984 C18.34507614 115.56282608 18.35226166 114.60856232 18.35966492 113.62538147 C18.35504997 112.28895851 18.35504997 112.28895851 18.3503418 110.92553711 C18.35176682 110.144048 18.35319183 109.3625589 18.35466003 108.55738831 C18.07417084 106.09644749 17.38806183 104.49736591 16.10742188 102.38818359 C14.51933785 101.20147701 14.51933785 101.20147701 12.62304688 100.38818359 C11.59050781 99.89318359 11.59050781 99.89318359 10.53710938 99.38818359 C9.8178125 99.05818359 9.09851563 98.72818359 8.35742188 98.38818359 C3.34231112 96.03677635 -1.45644024 93.73621219 -5.89257812 90.38818359 C-5.89257812 89.72818359 -5.89257812 89.06818359 -5.89257812 88.38818359 C-6.55257812 88.38818359 -7.21257812 88.38818359 -7.89257812 88.38818359 C-7.89257812 87.72818359 -7.89257812 87.06818359 -7.89257812 86.38818359 C-8.55257812 86.38818359 -9.21257812 86.38818359 -9.89257812 86.38818359 C-19.03356842 71.71048896 -23.00741964 58.74468331 -19.39257812 41.45068359 C-19.22314697 40.62383057 -19.05371582 39.79697754 -18.87915039 38.94506836 C-17.19813137 31.14659257 -15.05670178 23.48378047 -12.83007812 15.82568359 C-12.48976562 14.64176025 -12.14945313 13.45783691 -11.79882812 12.23803711 C-11.46753906 11.13129639 -11.13625 10.02455566 -10.79492188 8.88427734 C-10.50093506 7.89613037 -10.20694824 6.9079834 -9.90405273 5.88989258 C-7.79370158 0.67030091 -5.49740629 0.01228627 0 0 Z M1.10742188 12.38818359 C-1.42668468 19.587177 -3.32382014 26.83919922 -5.08007812 34.26318359 C-5.35271484 35.38982422 -5.62535156 36.51646484 -5.90625 37.67724609 C-7.37202429 43.47158555 -7.37202429 43.47158555 -7.89257812 49.38818359 C-5.91257813 49.38818359 -3.93257812 49.38818359 -1.89257812 49.38818359 C-1.63565186 48.36047852 -1.63565186 48.36047852 -1.37353516 47.31201172 C-0.04915365 42.01448568 1.27522786 36.71695964 2.59960938 31.41943359 C2.85726074 30.38560547 3.11491211 29.35177734 3.38037109 28.28662109 C3.82888584 26.49858647 4.28255078 24.71182367 4.74462891 22.92724609 C5.67705943 19.31335387 6.34157312 16.13460358 6.10742188 12.38818359 C4.45742187 12.38818359 2.80742187 12.38818359 1.10742188 12.38818359 Z " fill="#F1BA49" transform="translate(221.892578125,98.61181640625)"/>
<path d="M0 0 C0.33 0 0.66 0 1 0 C1 1.65 1 3.3 1 5 C1.56879883 4.99476318 2.13759766 4.98952637 2.72363281 4.98413086 C22.49877311 4.8303069 42.23724545 5.37614006 62 6 C62.3359987 17.50445562 60.77289068 25.84984806 53.25 34.9375 C46.15941775 42.29414538 36.31352559 46.95698318 26.0625 47.4375 C15.84030801 47.08883609 5.34428103 41.1616783 -1.6171875 33.80078125 C-8.28255079 25.120746 -9.18804405 16.57225421 -9 6 C-8.34 6 -7.68 6 -7 6 C-6.67 5.01 -6.34 4.02 -6 3 C-6 3.66 -6 4.32 -6 5 C-4.02 5 -2.04 5 0 5 C0 3.35 0 1.7 0 0 Z " fill="#DF7920" transform="translate(220,143)"/>
<path d="M0 0 C1.22111481 0.00007553 2.44222961 0.00015106 3.7003479 0.00022888 C5.03769979 0.00533587 6.37505127 0.01055187 7.71240234 0.01586914 C9.07717843 0.01773399 10.44195518 0.01915758 11.80673218 0.02015686 C15.40049077 0.02397676 18.99420902 0.03380256 22.58795166 0.04486084 C26.25442967 0.05508628 29.92091419 0.05965691 33.58740234 0.06469727 C40.78273325 0.07542529 47.97803089 0.0924954 55.17333984 0.11352539 C55.17333984 0.44352539 55.17333984 0.77352539 55.17333984 1.11352539 C54.44084518 1.11939163 53.70835052 1.12525787 52.95365906 1.13130188 C46.05251996 1.18919179 39.15165873 1.26124705 32.25084209 1.3492403 C28.70297705 1.39397921 25.15522776 1.4332271 21.60717773 1.45996094 C17.52867443 1.49093165 13.4507944 1.54572144 9.37255859 1.60180664 C7.45995491 1.61139153 7.45995491 1.61139153 5.50871277 1.62117004 C3.73721611 1.65086128 3.73721611 1.65086128 1.92993164 1.68115234 C0.3677314 1.69780693 0.3677314 1.69780693 -1.22602844 1.71479797 C-4.1993663 2.17066849 -4.9188736 2.89245662 -6.82666016 5.11352539 C-7.48666016 5.11352539 -8.14666016 5.11352539 -8.82666016 5.11352539 C-8.45166016 3.17602539 -8.45166016 3.17602539 -7.82666016 1.11352539 C-5.12376708 -0.23792115 -3.02596209 -0.00622626 0 0 Z " fill="#E7AF40" transform="translate(221.82666015625,98.886474609375)"/>
<path d="M0 0 C0.99 0.99 1.98 1.98 3 3 C2.34 5.31 1.68 7.62 1 10 C0.67 10 0.34 10 0 10 C0 6.7 0 3.4 0 0 Z " fill="#A85E27" transform="translate(208,179)"/>
</svg>
